<svg id="Layer_1" data-name="Layer 1" xmlns="http://www.w3.org/2000/svg" viewBox="0 0 51.65 27.22"><defs><style>.cls-1{fill:#fff;fill-rule:evenodd;}</style></defs><title>icon</title><path class="cls-1" d="M47,22.56a4.74,4.74,0,1,1-4.72-4.65A4.6,4.6,0,0,1,47,22.56Zm-4.74,2.36a2.36,2.36,0,0,0,0-4.71,2.36,2.36,0,0,0,0,4.71Z"/><path class="cls-1" d="M19.93,25.93c0-.27,0-.53,0-.8s0-.24.23-.18a7.09,7.09,0,0,0,2.15.27,2.38,2.38,0,0,0,.91-.18.67.67,0,0,0,.48-.56.68.68,0,0,0-.35-.68,4.15,4.15,0,0,0-1.1-.44,4.26,4.26,0,0,1-1.51-.78,2.62,2.62,0,0,1,.52-4.21,4.1,4.1,0,0,1,2.06-.46,9.32,9.32,0,0,1,2,.25c.14,0,.19.08.19.22,0,.52,0,1,0,1.54,0,.15,0,.2-.2.16a6.8,6.8,0,0,0-1.68-.23,2.09,2.09,0,0,0-.92.2.58.58,0,0,0-.1,1,2.28,2.28,0,0,0,.69.32,7.07,7.07,0,0,1,1.39.52,2.47,2.47,0,0,1,1.43,2.33,2.64,2.64,0,0,1-1.51,2.47,5.33,5.33,0,0,1-2.84.47,14.8,14.8,0,0,1-1.63-.2c-.13,0-.18-.06-.18-.2S19.93,26.22,19.93,25.93Z"/><path class="cls-1" d="M11.51,24.51s0,.09,0,.14v2.06c0,.08,0,.17-.1.2a5.5,5.5,0,0,1-4.68-.46A4.31,4.31,0,0,1,4.68,22.8,4.52,4.52,0,0,1,8.54,18a6.37,6.37,0,0,1,2.81.2c.14,0,.17.1.17.24v2c0,.16,0,.18-.18.11a3.56,3.56,0,0,0-2.62-.25,2.38,2.38,0,0,0,.22,4.55,3.77,3.77,0,0,0,2.34-.28C11.35,24.56,11.41,24.5,11.51,24.51Z"/><path class="cls-1" d="M35.13,24.49c0,.07,0,.11,0,.16v2.06c0,.08,0,.17-.1.2a5.49,5.49,0,0,1-4.69-.47,4.33,4.33,0,0,1-2.06-3.92,4.49,4.49,0,0,1,4-4.54,6.45,6.45,0,0,1,2.73.21c.11,0,.16.07.16.19,0,.7,0,1.4,0,2.1,0,.19-.08.14-.18.09a3.85,3.85,0,0,0-2.29-.34,2.31,2.31,0,0,0-1.91,2.2,2.37,2.37,0,0,0,2.74,2.51,4.66,4.66,0,0,0,.83-.15A5.21,5.21,0,0,0,35.13,24.49Z"/><path class="cls-1" d="M14.62,7.09v5.83a1.17,1.17,0,0,1-.8,1.2,1.15,1.15,0,0,1-1.47-1V1.18A1.14,1.14,0,0,1,13.54,0,1.1,1.1,0,0,1,14.6,1c0,.58,0,1.17,0,1.75Z"/><path class="cls-1" d="M39.26,13.27a1.11,1.11,0,0,1-1.08.9,1.12,1.12,0,0,1-1.09-.87V.87A1.1,1.1,0,0,1,38.21,0a1.08,1.08,0,0,1,1,.9Z"/><path class="cls-1" d="M14.61,22.58V18.29c0-.16,0-.23.21-.22H16.7c.15,0,.2,0,.2.19q0,4.3,0,8.6c0,.16-.06.19-.2.19-.62,0-1.25,0-1.87,0-.17,0-.23,0-.23-.23C14.61,25.41,14.61,24,14.61,22.58Z"/><path class="cls-1" d="M33.14,8.08v2.63a1.17,1.17,0,0,1-.77,1.16,1.13,1.13,0,0,1-1.5-1.1c0-1.8,0-3.6,0-5.4A1.13,1.13,0,0,1,33.08,5a1.48,1.48,0,0,1,.06.47Z"/><path class="cls-1" d="M18.53,8.07V5.41a1.11,1.11,0,0,1,1-1.17,1.12,1.12,0,0,1,1.27,1.09c0,1.83,0,3.65,0,5.48a1.13,1.13,0,0,1-2.26,0c0-.92,0-1.85,0-2.77Z"/><path class="cls-1" d="M43.25,5.12a1.09,1.09,0,0,1,1.09-.9,1.14,1.14,0,0,1,1.12,1c0,.18,0,.36,0,.54,0,1.6,0,3.2,0,4.79a1.51,1.51,0,0,1-.24,1,1.17,1.17,0,0,1-1.16.41,1.1,1.1,0,0,1-.84-.88C43.24,9.05,43.25,7.08,43.25,5.12Z"/><path class="cls-1" d="M8.41,11.05a1.12,1.12,0,0,1-2.21-.13q0-2.85,0-5.7a1.12,1.12,0,0,1,2.21-.11Z"/><path class="cls-1" d="M0,9.61A12.79,12.79,0,0,1,0,8.23a1.1,1.1,0,0,1,1.12-.91,1.07,1.07,0,0,1,1.09.92,22.6,22.6,0,0,1,0,2.33,2.28,2.28,0,0,1,0,.45,1.1,1.1,0,0,1-1.1.9A1.11,1.11,0,0,1,0,11,13.28,13.28,0,0,1,0,9.61Z"/><path class="cls-1" d="M51.64,9.76a9.12,9.12,0,0,1,0,1.25,1.1,1.1,0,0,1-1.18.91,1.07,1.07,0,0,1-1-1,20,20,0,0,1,0-2.68,1.09,1.09,0,0,1,1-1,1.13,1.13,0,0,1,1.19.88,1.25,1.25,0,0,1,0,.19C51.65,8.8,51.64,9.21,51.64,9.76Z"/><path class="cls-1" d="M26.91,11.05a1.07,1.07,0,0,1-1.07.87,1.08,1.08,0,0,1-1.1-.87V8.19a1.09,1.09,0,0,1,1.1-.87,1.07,1.07,0,0,1,1.07.87Z"/><path class="cls-1" d="M50.59,26.28v.63c0,.07,0,.14-.09.13s-.09-.06-.09-.13V26c0-.07,0-.15.09-.15s.18,0,.22.1c.09.27.19.53.31.84.1-.28.2-.52.28-.77s.1-.2.24-.17.09.14.09.22c0,.27,0,.53,0,.8,0,.07,0,.15-.09.15s-.1-.08-.1-.15a3.6,3.6,0,0,0,0-.65c-.09.22-.17.44-.26.67,0,.06,0,.14-.13.14s-.11-.08-.14-.14c-.08-.22-.15-.43-.23-.64Z"/><path class="cls-1" d="M37.09.87V13.3c-.06-.07,0-.16,0-.25V1.12C37.05,1,37,.94,37.09.87Z"/><path class="cls-1" d="M39.26,13.27V.9a.37.37,0,0,1,0,.25V13C39.3,13.1,39.33,13.19,39.26,13.27Z"/><path class="cls-1" d="M49.76,26.51a1.62,1.62,0,0,1,0-.22c0-.2,0-.33-.27-.29-.05,0-.13,0-.12-.07s.06-.06.11-.06h.75c.05,0,.11,0,.11.07s-.06.07-.11.06c-.28-.05-.3.11-.29.32a5.61,5.61,0,0,1,0,.58c0,.07,0,.14-.09.14s-.1-.07-.1-.14Z"/><path class="cls-1" d="M8.41,11.05V5.11a.37.37,0,0,1,0,.25V10.8A.37.37,0,0,1,8.41,11.05Z"/><path class="cls-1" d="M43.25,5.12c0,2,0,3.93,0,5.9-.06-.08,0-.17,0-.25,0-1.8,0-3.59,0-5.38C43.21,5.3,43.18,5.2,43.25,5.12Z"/><path class="cls-1" d="M24.74,8.19v2.86a.23.23,0,0,1,0-.18V8.37A.23.23,0,0,1,24.74,8.19Z"/><path class="cls-1" d="M26.91,11.05V8.19c.05.05,0,.12,0,.19v2.49A.23.23,0,0,1,26.91,11.05Z"/></svg>